<svg xmlns="http://www.w3.org/2000/svg">
  <defs>
    <g id="window" fill="none" stroke="currentColor" stroke-width="1.3">
      <rect width="12" height="20" />
      <path d="M6 0v20M0 8h12" />
    </g>
    <g
      id="house"
      fill="none"
      stroke="currentColor"
      stroke-width="1.4"
      stroke-linejoin="round"
    >
      <path
        d="M56 112V30h108v82M50 30l17-16h86l17 16zM54 112h114M53 60h114M53 89h114"
      />
      <use href="#window" x="70" y="36" />
      <use href="#window" x="103" y="36" />
      <use href="#window" x="136" y="36" />
      <use href="#window" x="70" y="66" />
      <use href="#window" x="103" y="66" />
      <use href="#window" x="136" y="66" />
      <path
        d="M102 112v-14a8 8 0 0 1 16 0v14M110 99v13M70 98h12v10H70zM136 98h12v10h-12z"
      />
    </g>
  </defs>
  <symbol id="weg" viewBox="0 0 220 130">
    <use href="#house" />
    <g fill="#c8dacc" stroke="#254b3e" stroke-width="1.4">
      <rect x="70" y="36" width="12" height="20" />
      <rect x="103" y="66" width="12" height="20" />
      <rect x="136" y="36" width="12" height="20" />
    </g>
    <path d="M38 119h144" stroke="currentColor" stroke-width="1.2" />
  </symbol>
  <symbol id="miethaus" viewBox="0 0 220 130">
    <path d="M56 31h108v81H56z" fill="#dce7dc" />
    <use href="#house" />
    <path
      d="M47 18v-8h126v8M38 119h144"
      fill="none"
      stroke="#254b3e"
      stroke-width="1.4"
    />
    <path d="M110 5v10" stroke="#974f46" stroke-width="2" />
  </symbol>
  <symbol id="wohnung" viewBox="0 0 220 130">
    <g opacity=".75"><use href="#house" /></g>
    <rect
      x="94"
      y="60"
      width="30"
      height="29"
      fill="#d3e3d3"
      stroke="#254b3e"
      stroke-width="1.4"
    />
    <use href="#window" x="103" y="65" />
    <path
      d="M124 74h40l17-17"
      fill="none"
      stroke="#974f46"
      stroke-width="1.5"
    />
    <circle cx="184" cy="54" r="3" fill="#974f46" />
    <path d="M38 119h144" stroke="currentColor" stroke-width="1.2" />
  </symbol>
  <symbol id="investoren" viewBox="0 0 220 130">
    <g transform="translate(-15 17) scale(.82)"><use href="#house" /></g>
    <path
      d="M127 106V76h15v30m8 0V61h15v45m8 0V45h15v61"
      fill="#c8dacc"
      stroke="#254b3e"
      stroke-width="1.4"
    />
    <path
      d="m125 58 24-17 21 2 21-22M186 21h5v5"
      fill="none"
      stroke="#974f46"
      stroke-width="1.5"
      stroke-linejoin="round"
    />
    <path d="M26 119h174" stroke="currentColor" stroke-width="1.2" />
  </symbol>
  <symbol id="portfolio" viewBox="0 0 220 130">
    <g transform="translate(-15 44) scale(.62)" opacity=".65">
      <use href="#house" />
    </g>
    <g transform="translate(98 44) scale(.62)" opacity=".65">
      <use href="#house" />
    </g>
    <g transform="translate(33 13) scale(.82)">
      <path d="M56 31h108v81H56z" fill="#dce7dc" />
      <use href="#house" />
    </g>
    <path d="M16 119h188" stroke="currentColor" stroke-width="1.2" />
  </symbol>
  <symbol id="zinshaus" viewBox="0 0 220 130">
    <path d="M56 31h108v81H56z" fill="#efe2dd" />
    <use href="#house" />
    <path
      d="M62 26h96M61 94h96M72 61v4m34-4v4m34-4v4M38 119h144"
      fill="none"
      stroke="currentColor"
      stroke-width="1.2"
    />
    <path
      d="M176 111V85m0 15c-12 0-13-9-13-9 10-2 13 5 13 9m0-6c11 0 12-10 12-10-9 0-12 6-12 10"
      fill="#dce7dc"
      stroke="#254b3e"
      stroke-width="1.3"
      stroke-linejoin="round"
    />
  </symbol>
  <symbol id="nachfolge" viewBox="0 0 220 130">
    <g transform="translate(-19 23) scale(.76)" opacity=".7">
      <use href="#house" />
    </g>
    <path
      d="M119 26h50l17 17v65h-67z"
      fill="#fff"
      stroke="currentColor"
      stroke-width="1.4"
      stroke-linejoin="round"
    />
    <path
      d="M169 26v18h17M130 55h43m-43 12h34m-34 12h24"
      fill="none"
      stroke="currentColor"
      stroke-width="1.3"
    />
    <path
      d="M85 96h59m-8-8 8 8-8 8"
      fill="none"
      stroke="#974f46"
      stroke-width="1.8"
      stroke-linejoin="round"
    />
    <path d="M24 119h176" stroke="currentColor" stroke-width="1.2" />
  </symbol>
  <symbol id="sanierung" viewBox="0 0 220 130">
    <path
      d="M52 33v80h114V33"
      fill="#e2ede1"
      stroke="#adc9ad"
      stroke-width="5"
    />
    <use href="#house" />
    <path
      d="m78 18 67 0 7 9H70zM90 18l-4 9m20-9v9m16-9 4 9m11-9 6 9"
      fill="#d5e2e7"
      stroke="#60766b"
      stroke-width="1.1"
      stroke-linejoin="round"
    />
    <path
      d="M177 76c-8-15 4-29 22-33 3 19-3 35-22 33Zm-5 15 18-36"
      fill="#c8dacc"
      stroke="#254b3e"
      stroke-width="1.4"
      stroke-linecap="round"
    />
    <path d="M38 119h160" stroke="currentColor" stroke-width="1.2" />
  </symbol>
</svg>
